<?xml version="1.0" encoding="UTF-8" standalone="no"?>
<!-- Created with Inkscape (http://www.inkscape.org/) -->

<svg
   width="256"
   height="256"
   viewBox="0 0 67.733332 67.733333"
   version="1.1"
   id="svg5"
   xml:space="preserve"
   xmlns="http://www.w3.org/2000/svg"
   xmlns:svg="http://www.w3.org/2000/svg"><defs
     id="defs2" /><g
     id="g163"
     transform="matrix(5.0196079,0,0,5.0196079,476.93387,-244.79194)"><path
       style="fill:#fe7e26;stroke-width:0.264583"
       d="M -85.753751,59.747351 V 58.02756 h 1.719791 1.719792 v 1.719791 1.719792 h -1.719792 -1.719791 z m 0,-4.233333 v -1.719792 h 1.719791 1.719792 v 1.719792 1.719792 h -1.719792 -1.719791 z m 0,-4.233333 v -1.719792 h 1.719791 1.719792 v 1.719792 1.719791 h -1.719792 -1.719791 z"
       id="path171" /><path
       style="fill:#00a1e7;stroke-width:0.264583"
       d="M -94.220418,59.747351 V 58.02756 h 1.719792 1.719791 v 1.719791 1.719792 h -1.719791 -1.719792 z m 0,-4.233333 v -1.719792 h 1.719792 1.719791 v 1.719792 1.719792 h -1.719791 -1.719792 z m 0,-4.233333 v -1.719792 h 1.719792 1.719791 v 1.719792 1.719791 h -1.719791 -1.719792 z"
       id="path169" /><path
       style="fill:#21b04b;stroke-width:0.264583"
       d="M -89.987085,59.747351 V 58.02756 h 1.719792 1.719792 v 1.719791 1.719792 h -1.719792 -1.719792 z m 0,-4.233333 v -1.719792 h 1.719792 1.719792 v 1.719792 1.719792 h -1.719792 -1.719792 z m 0,-4.233333 v -1.719792 h 1.719792 1.719792 v 1.719792 1.719791 h -1.719792 -1.719792 z"
       id="path167" /><path
       style="fill:#000000;stroke-width:0.264583"
       d="m -95.014168,55.514018 v -6.746875 h 6.746875 6.746875 v 6.746875 6.746875 h -6.746875 -6.746875 z m 4.233333,4.233333 V 58.02756 h -1.719791 -1.719792 v 1.719791 1.719792 h 1.719792 1.719791 z m 4.233334,0 V 58.02756 h -1.719792 -1.719792 v 1.719791 1.719792 h 1.719792 1.719792 z m 4.233333,0 V 58.02756 h -1.719792 -1.719791 v 1.719791 1.719792 h 1.719791 1.719792 z m -8.466667,-4.233333 v -1.719792 h -1.719791 -1.719792 v 1.719792 1.719792 h 1.719792 1.719791 z m 4.233334,0 v -1.719792 h -1.719792 -1.719792 v 1.719792 1.719792 h 1.719792 1.719792 z m 4.233333,0 v -1.719792 h -1.719792 -1.719791 v 1.719792 1.719792 h 1.719791 1.719792 z m -8.466667,-4.233333 v -1.719792 h -1.719791 -1.719792 v 1.719792 1.719791 h 1.719792 1.719791 z m 4.233334,0 v -1.719792 h -1.719792 -1.719792 v 1.719792 1.719791 h 1.719792 1.719792 z m 4.233333,0 v -1.719792 h -1.719792 -1.719791 v 1.719792 1.719791 h 1.719791 1.719792 z"
       id="path165" /></g></svg>
